# xmcd
#
# Track frame offsets: 
#        150
#        19841
#        34442
#        48260
#        60374
#        111166
#        163135
#        201002
#        227626
#        262621
#
# Disc length: 4226 seconds
#
# Revision: 2
# Processed by: cddbd v1.5.2PL0 Copyright (c) Steve Scherf et al.
# Submitted via: ExactAudioCopy v0.99pb5
#
DISCID=7b10800a
DTITLE=Orchestre Revolutionnaire et Romantique - John Eliot Gardiner /
DTITLE=Brahms, Symphony 3
DYEAR=2009
DGENRE=Classical
TTITLE0=Ich schwing mein Horn ins Jammertal
TTITLE1=Es tont ein voller Harfenklang
TTITLE2=Nachtwache I
TTITLE3=Einformig ist der Liebe Gram
TTITLE4=Gesang der Parzen
TTITLE5=Symphony No. 3 in F major - I. Allegro con brio
TTITLE6=Symphony No. 3 in F major - II. Andante
TTITLE7=Symphony No. 3 in F major - III. Poco allegretto
TTITLE8=Symphony No. 3 in F major - IV. Allegro
TTITLE9=Nanie
EXTD=
EXTT0=
EXTT1=
EXTT2=
EXTT3=
EXTT4=
EXTT5=
EXTT6=
EXTT7=
EXTT8=
EXTT9=
PLAYORDER=
